<?xml version="1.0" standalone="no"?>
<!DOCTYPE svg PUBLIC "-//W3C//DTD SVG 20010904//EN"
 "http://www.w3.org/TR/2001/REC-SVG-20010904/DTD/svg10.dtd">
<svg version="1.0" xmlns="http://www.w3.org/2000/svg"
 width="563.000000pt" height="563.000000pt" viewBox="0 0 563.000000 563.000000"
 preserveAspectRatio="xMidYMid meet">
<metadata>
Created by potrace 1.14, written by Peter Selinger 2001-2017
</metadata>
<g transform="translate(0.000000,563.000000) scale(0.100000,-0.100000)"
fill="#000000" stroke="none">
<path d="M2330 5467 c-118 -31 -191 -172 -199 -389 l-1 -26 -86 35 c-124 50
-222 46 -290 -14 -71 -62 -75 -192 -11 -277 15 -19 27 -39 27 -43 0 -5 -39
-22 -87 -37 -113 -37 -268 -116 -374 -192 -46 -32 -136 -110 -200 -172 l-117
-113 -63 35 c-125 68 -251 85 -379 51 -201 -52 -330 -177 -401 -390 -22 -63
-24 -87 -24 -250 l0 -180 43 -89 c71 -149 135 -218 267 -284 l60 -31 -2 -203
c-1 -112 2 -229 8 -260 12 -76 53 -204 90 -284 17 -35 27 -68 24 -73 -3 -5
-29 -12 -58 -16 -178 -24 -285 -61 -354 -122 -40 -35 -52 -66 -43 -115 21
-112 211 -198 570 -258 145 -25 200 -38 200 -48 0 -4 -22 -28 -48 -54 -26 -25
-58 -67 -70 -92 l-23 -45 25 -50 c34 -65 63 -75 205 -68 157 7 294 39 464 107
81 33 152 60 158 60 21 0 5 -24 -63 -98 -135 -145 -215 -277 -279 -460 -31
-91 -34 -95 -95 -140 -82 -61 -109 -108 -108 -187 1 -92 47 -159 127 -185 20
-6 61 -33 90 -59 62 -57 95 -75 165 -90 82 -17 161 -13 263 13 l93 24 54 -49
c85 -78 107 -86 329 -114 109 -14 227 -33 263 -41 84 -19 182 -25 244 -13 62
11 196 26 306 34 126 9 322 33 429 54 131 25 240 26 326 2 103 -29 144 -32
206 -17 231 54 424 375 365 604 -24 88 -72 156 -152 210 -16 11 -19 25 -19 90
0 64 -5 87 -27 133 -39 78 -124 168 -224 235 l-86 58 33 15 c287 129 392 190
564 327 137 110 237 211 290 293 39 62 49 71 87 81 123 32 315 122 398 188 74
58 150 145 162 184 15 51 -6 105 -52 132 -43 25 -192 30 -330 10 -52 -7 -100
-13 -107 -14 -7 0 -17 17 -22 38 -17 62 -39 85 -73 78 -27 -5 -29 -4 -23 17 4
12 19 43 32 69 24 44 25 52 19 155 -10 179 -37 343 -86 517 -36 127 -36 134
-7 177 80 119 100 183 101 314 0 92 -2 106 -31 167 -38 80 -125 171 -197 204
-117 53 -262 73 -364 48 -75 -18 -79 -17 -102 6 -42 42 -264 187 -365 238 -70
35 -238 89 -361 117 -66 14 -127 28 -136 31 -10 3 -22 23 -28 47 -22 83 -32
108 -70 165 -65 97 -159 134 -275 107 -60 -14 -84 -26 -152 -76 -29 -22 -54
-39 -57 -39 -3 0 -24 32 -47 71 -49 82 -129 173 -171 195 -42 22 -109 32 -148
21z"/>
<path d="M5239 4185 c-60 -63 -91 -115 -78 -132 26 -30 119 59 134 129 12 52
-9 53 -56 3z"/>
<path d="M5480 4068 c-80 -147 -289 -369 -411 -437 -41 -23 -97 -48 -126 -57
-90 -26 -73 -70 27 -68 60 2 128 26 220 80 54 31 193 164 246 234 56 74 111
221 100 266 -9 36 -30 29 -56 -18z"/>
</g>
</svg>
